<?xml version="1.0" standalone="no"?>
<!DOCTYPE svg PUBLIC "-//W3C//DTD SVG 20010904//EN"
 "http://www.w3.org/TR/2001/REC-SVG-20010904/DTD/svg10.dtd">
<svg version="1.0" xmlns="http://www.w3.org/2000/svg"
 width="811.000000pt" height="692.000000pt" viewBox="0 0 811.000000 692.000000"
 preserveAspectRatio="xMidYMid meet">

<g transform="translate(0.000000,692.000000) scale(0.100000,-0.100000)"
fill="#000000" stroke="none">
<path d="M3224 6115 c-10 -8 -14 -15 -8 -15 6 0 17 7 24 15 16 19 9 19 -16 0z"/>
<path d="M3480 5315 c-7 -9 -8 -15 -2 -15 5 0 12 7 16 15 3 8 4 15 2 15 -2 0
-9 -7 -16 -15z"/>
<path d="M2335 5090 c-86 -7 -175 -27 -175 -40 0 -5 -14 -12 -32 -15 -17 -4
-51 -18 -74 -31 -24 -13 -48 -24 -54 -24 -6 0 -35 -18 -65 -40 -30 -22 -56
-40 -59 -40 -6 0 -98 -61 -106 -70 -3 -3 -22 -18 -43 -34 -52 -38 -157 -143
-157 -156 0 -18 14 -11 121 69 320 238 468 306 695 318 111 6 158 -4 210 -43
44 -32 78 -107 70 -155 -12 -73 -21 -86 -58 -81 -28 3 -36 11 -58 55 -14 28
-29 52 -35 54 -6 2 -10 -30 -11 -79 -2 -95 -14 -174 -39 -238 -10 -25 -25 -75
-35 -112 -21 -78 -9 -95 34 -47 38 42 50 38 43 -16 -14 -101 -68 -205 -171
-329 -63 -76 -154 -148 -183 -144 -16 2 -66 -23 -155 -77 -237 -146 -253 -157
-256 -193 -3 -32 0 -36 80 -109 27 -24 97 -53 129 -53 49 0 142 68 324 236 50
46 100 92 113 102 12 11 22 23 22 26 0 10 62 100 72 104 4 2 8 7 8 11 0 7 75
127 97 156 22 29 87 164 114 237 55 149 71 225 73 343 2 182 -50 298 -166 371
-40 26 -138 55 -173 52 -11 -1 -56 -4 -100 -8z m-165 -1283 c0 -28 -167 -171
-264 -226 -60 -35 -75 -35 -60 -1 9 20 297 240 315 240 5 0 9 -6 9 -13z"/>
<path d="M2323 4844 c-18 -9 -33 -20 -33 -24 0 -12 33 -5 38 8 2 7 10 12 18
12 8 0 14 5 14 10 0 12 1 13 -37 -6z"/>
<path d="M2133 4786 c-112 -68 -259 -185 -366 -292 -53 -53 -95 -99 -93 -101
8 -8 62 26 122 79 146 127 287 236 359 278 22 13 42 27 45 30 3 4 15 12 28 19
12 6 22 16 22 21 0 22 -49 7 -117 -34z"/>
<path d="M2260 4790 c0 -5 7 -7 15 -4 8 4 15 8 15 10 0 2 -7 4 -15 4 -8 0 -15
-4 -15 -10z"/>
<path d="M3287 4247 c-26 -24 -47 -49 -47 -55 0 -7 -7 -12 -15 -12 -8 0 -15
-4 -15 -9 0 -5 -11 -12 -25 -15 -28 -7 -25 -31 6 -39 33 -9 22 -40 -24 -64
-36 -18 -42 -25 -39 -49 3 -24 -45 -188 -69 -236 -21 -41 -61 -166 -65 -200
-2 -21 -11 -57 -19 -80 -8 -24 -18 -89 -22 -146 -5 -92 -4 -102 10 -96 9 3 19
14 22 24 8 25 64 72 76 64 5 -3 12 9 15 26 4 17 11 33 15 36 5 3 9 13 9 23 0
10 7 32 15 47 8 16 15 39 15 51 0 12 5 25 10 28 6 3 10 13 10 22 0 8 6 29 13
46 8 18 24 64 37 102 12 39 38 102 56 140 18 39 36 84 40 100 10 45 55 138 73
152 26 18 90 35 176 45 44 5 109 13 145 17 36 4 104 3 151 -2 74 -9 89 -8 109
6 l23 16 -27 11 c-15 5 -68 10 -118 10 -50 0 -117 7 -152 16 -44 12 -82 14
-138 9 -67 -5 -78 -4 -95 13 -52 55 -95 54 -156 -1z"/>
<path d="M4122 4274 c-15 -6 -38 -23 -51 -38 -14 -14 -33 -26 -43 -26 -13 0
-18 -7 -18 -26 0 -18 -19 -44 -65 -90 -36 -36 -65 -68 -65 -73 0 -21 -91 -113
-135 -137 -19 -10 -35 -22 -35 -26 0 -5 -7 -8 -15 -8 -8 0 -15 -4 -15 -9 0 -5
-15 -18 -32 -28 -63 -37 -218 -180 -218 -200 0 -7 -4 -13 -9 -13 -5 0 -12 -13
-16 -30 -4 -16 -11 -30 -16 -30 -5 0 -9 -7 -9 -16 0 -8 3 -13 8 -11 4 3 7 -27
7 -66 0 -57 3 -72 16 -75 13 -2 82 59 163 146 11 12 24 22 28 22 21 0 -2 -113
-36 -185 -39 -80 -53 -116 -71 -177 -27 -96 -37 -103 -152 -105 -54 -1 -106
-2 -115 -3 -15 0 -18 -9 -18 -51 0 -65 36 -115 109 -149 60 -28 68 -47 46
-109 -8 -24 -15 -53 -15 -65 0 -11 -11 -55 -24 -98 -13 -42 -27 -100 -31 -130
-3 -29 -11 -75 -16 -103 -8 -39 -7 -63 5 -107 21 -80 53 -109 155 -139 41 -12
45 -12 62 10 14 17 19 39 19 80 0 51 25 204 68 406 10 52 24 88 38 102 14 14
20 30 17 46 -6 28 15 47 28 26 141 -224 267 -393 343 -459 126 -109 234 -172
379 -221 51 -17 119 -44 152 -59 33 -14 141 -53 240 -84 99 -32 188 -62 197
-67 32 -16 103 -39 123 -39 11 0 31 7 43 16 25 17 28 51 11 119 -10 39 -25 59
-86 113 -49 44 -57 47 -162 53 -58 4 -133 14 -166 23 -33 8 -79 20 -103 25
-57 15 -159 64 -253 122 -43 27 -83 49 -88 49 -5 0 -11 4 -13 8 -1 4 -42 43
-91 86 -48 42 -109 100 -135 128 -26 28 -73 78 -104 111 -32 34 -58 65 -58 70
0 5 -7 15 -15 23 -8 9 -15 28 -15 44 0 22 7 31 38 45 20 10 39 21 42 24 6 7
19 15 182 102 247 131 388 220 452 286 77 78 87 90 111 138 11 22 24 43 29 46
4 4 11 27 13 53 3 26 10 49 14 52 5 3 9 55 9 116 0 101 1 110 18 102 9 -4 32
-8 50 -8 52 -2 61 -37 26 -105 -8 -14 -14 -29 -14 -34 0 -4 -11 -29 -24 -56
-13 -27 -26 -61 -30 -75 -3 -14 -11 -26 -16 -26 -6 0 -10 -15 -10 -33 0 -19
-3 -37 -7 -41 -10 -10 -14 -38 -7 -56 7 -20 26 15 75 141 68 175 142 304 188
332 33 19 110 47 132 47 9 0 19 7 23 15 3 9 0 15 -10 15 -8 0 -22 6 -30 14
-12 13 -11 18 11 40 33 33 32 45 -6 53 -27 5 -30 9 -26 32 3 14 9 34 13 45 14
36 -20 11 -51 -37 -17 -26 -36 -45 -42 -42 -7 2 -13 1 -13 -3 0 -4 -36 -20
-80 -36 -76 -27 -140 -68 -140 -91 -1 -5 -10 -21 -21 -35 l-21 -25 -34 40
c-19 22 -34 43 -34 47 0 13 -96 75 -145 94 -41 15 -76 19 -190 19 -127 0 -140
2 -139 18 2 21 3 21 -41 0 -24 -12 -31 -19 -23 -25 7 -4 -14 -8 -49 -8 -34 0
-65 5 -68 10 -9 14 79 144 112 165 20 13 39 16 78 12 43 -4 53 -2 63 14 9 14
10 25 2 40 -10 17 -20 19 -72 17 -33 -2 -72 -8 -86 -14z m272 -386 c50 -14
112 -60 131 -99 25 -47 19 -109 -17 -180 -18 -35 -43 -77 -57 -93 -59 -67
-129 -131 -181 -164 -30 -20 -62 -43 -72 -51 -9 -9 -40 -29 -70 -44 -29 -15
-60 -32 -68 -36 -57 -32 -200 -83 -247 -88 -41 -5 -43 -4 -43 21 0 24 50 186
69 224 5 9 14 35 21 57 6 22 24 67 40 100 15 33 38 86 51 118 12 31 26 57 30
57 11 0 21 52 12 61 -12 12 -49 -15 -66 -49 -71 -138 -147 -296 -162 -335 -10
-26 -19 -46 -21 -44 -5 5 15 78 32 115 15 32 61 176 71 221 3 13 1 26 -5 30
-19 11 23 68 65 89 21 10 47 23 58 29 103 57 331 89 429 61z m250 -45 c22 -46
30 -119 17 -158 l-9 -30 -1 35 c-1 31 -11 75 -37 168 -10 35 11 25 30 -15z
m-924 -568 c-7 -25 -16 -48 -21 -51 -4 -2 -4 8 1 23 4 15 11 41 15 57 3 15 9
26 12 22 3 -3 0 -26 -7 -51z m-46 -119 c-3 -15 -8 -25 -11 -23 -2 3 -1 17 3
31 3 15 8 25 11 23 2 -3 1 -17 -3 -31z m489 -764 c126 -93 159 -113 278 -170
158 -76 271 -109 508 -147 51 -9 98 -18 103 -21 42 -26 -142 -32 -260 -9 -210
43 -452 159 -612 294 -30 25 -65 55 -78 66 -25 21 -47 55 -36 55 3 0 47 -31
97 -68z"/>
<path d="M6869 4183 c-17 -3 -51 -30 -92 -74 -37 -38 -73 -69 -82 -69 -21 0
-19 -17 4 -23 10 -2 24 -14 30 -26 10 -18 8 -22 -26 -38 -29 -14 -38 -24 -38
-43 0 -14 -3 -29 -6 -35 -12 -19 -99 -294 -99 -313 0 -10 -4 -22 -9 -28 -5 -5
-14 -31 -19 -59 -6 -27 -19 -86 -31 -129 -12 -46 -21 -109 -21 -150 l1 -71 20
25 c11 14 30 37 42 53 12 15 26 26 31 24 18 -6 46 27 46 55 0 15 4 29 9 33 5
3 12 19 16 35 4 17 11 30 16 30 5 0 9 16 9 35 0 19 11 58 25 87 13 28 28 67
31 87 4 20 17 57 30 83 13 26 24 52 24 58 0 5 14 39 30 73 17 35 30 71 30 80
0 9 4 18 9 22 5 3 12 18 16 33 11 47 38 69 106 85 87 20 254 37 369 37 97 0
140 6 140 20 0 13 -39 19 -155 26 -78 5 -123 13 -153 27 -34 15 -53 18 -90 12
-79 -12 -86 -11 -97 13 -7 15 -18 22 -37 22 -14 0 -32 2 -40 3 -7 2 -25 2 -39
0z"/>
<path d="M5800 4093 l-31 -38 5 30 5 31 -104 2 c-102 3 -184 -10 -197 -31 -3
-6 -3 -20 2 -32 5 -13 3 -30 -5 -45 -13 -24 -12 -25 23 -30 32 -4 37 -9 40
-33 2 -16 -4 -40 -13 -54 -10 -15 -14 -34 -11 -49 6 -21 12 -24 56 -24 46 0
50 -2 50 -23 0 -13 -18 -66 -40 -117 -43 -101 -57 -142 -70 -205 -5 -22 -11
-51 -15 -65 -7 -24 -7 -24 8 -5 8 11 29 54 46 95 72 169 122 268 172 338 11
16 41 29 93 44 80 21 92 35 54 62 l-22 16 22 23 c30 32 28 55 -5 59 -18 2 -27
8 -25 17 18 85 11 91 -38 34z m-70 -37 c0 -21 -26 -37 -70 -43 -44 -6 -52 7
-23 39 20 22 93 26 93 4z"/>
<path d="M6245 4106 c-28 -12 -30 -16 -30 -69 l0 -57 35 1 c54 2 85 13 88 33
8 41 34 56 98 56 64 0 75 -7 66 -42 -2 -10 -11 -18 -18 -18 -8 0 -14 -4 -14
-9 0 -5 -22 -12 -50 -16 -45 -6 -50 -10 -50 -32 0 -13 6 -31 14 -39 13 -12 21
-9 63 28 26 23 47 46 45 51 -2 5 4 7 12 4 9 -4 29 -1 46 4 22 8 30 17 30 34 0
13 -5 27 -10 30 -6 4 -10 12 -9 18 4 36 1 37 -143 37 -93 -1 -154 -5 -173 -14z"/>
<path d="M2882 4076 c-26 -7 -32 -14 -32 -37 0 -16 4 -29 9 -29 10 0 90 62 90
70 1 9 -31 7 -67 -4z"/>
<path d="M2958 3983 c6 -2 18 -2 25 0 6 3 1 5 -13 5 -14 0 -19 -2 -12 -5z"/>
<path d="M2011 3903 c-8 -3 -49 -27 -92 -53 -42 -26 -104 -57 -138 -70 -59
-22 -85 -50 -64 -71 10 -10 221 115 278 165 40 35 42 39 16 29z"/>
<path d="M5832 3823 c-40 -52 -137 -223 -158 -281 -10 -26 -21 -52 -25 -58
-12 -15 -39 -134 -38 -164 0 -16 3 -19 6 -10 4 8 16 29 28 45 13 17 25 39 29
50 7 25 55 55 88 55 13 0 30 6 37 13 9 8 59 12 179 12 92 0 173 4 180 8 6 5
12 23 11 40 0 24 -9 39 -36 62 -31 25 -46 30 -106 33 -38 3 -102 -1 -142 -7
-40 -7 -84 -9 -99 -5 -29 7 -35 34 -11 58 8 8 15 19 15 25 0 6 4 11 9 11 5 0
12 11 15 25 4 14 11 25 16 25 6 0 10 14 10 30 0 17 4 30 9 30 5 0 11 9 14 20
7 28 3 25 -31 -17z"/>
<path d="M5080 3791 c0 -6 -11 -22 -24 -34 -14 -13 -33 -43 -42 -67 -17 -42
-23 -53 -50 -83 -6 -7 -14 -26 -19 -42 -8 -28 -9 -29 -13 -6 -2 13 1 28 7 34
14 14 15 50 1 42 -5 -3 -10 -15 -10 -26 0 -10 -3 -19 -7 -19 -8 0 -26 -42 -51
-120 -8 -22 -8 -38 -2 -44 7 -7 10 -1 10 16 0 15 5 30 11 34 8 5 10 -4 5 -32
-16 -92 -18 -124 -7 -124 6 0 11 4 11 10 0 5 12 29 27 54 19 31 39 50 68 61
22 10 49 22 60 28 12 7 87 12 189 14 126 1 171 5 177 15 18 27 9 69 -20 99
-28 28 -33 29 -123 29 -51 0 -113 -5 -138 -11 -64 -15 -130 -4 -130 22 0 10 6
19 13 19 6 0 18 15 26 33 7 17 20 47 29 65 8 18 12 36 8 39 -3 3 -6 1 -6 -6z"/>
<path d="M878 3761 c-21 -4 -47 -16 -58 -26 -25 -22 -100 -138 -100 -153 0 -7
-4 -12 -10 -12 -5 0 -12 -11 -16 -25 -3 -14 -10 -25 -15 -25 -5 0 -9 -7 -9
-16 0 -8 -9 -36 -19 -62 -17 -41 -28 -79 -61 -197 -16 -58 -40 -210 -40 -256
0 -75 40 -191 99 -286 14 -23 31 -42 38 -43 7 0 32 -10 55 -22 36 -19 57 -23
128 -22 51 1 103 8 130 18 25 10 68 21 95 25 48 8 144 39 212 68 17 7 38 13
46 13 8 0 39 11 69 25 29 14 59 25 66 25 8 0 28 6 45 14 18 7 52 21 77 31 25
10 59 24 77 31 17 8 36 14 42 14 6 0 19 4 29 9 55 30 249 85 375 106 88 15
102 15 141 2 69 -24 100 -57 115 -125 11 -49 10 -69 -2 -128 -17 -83 -84 -228
-140 -304 -65 -88 -265 -280 -292 -280 -3 0 -27 -16 -52 -35 -74 -56 -258
-135 -316 -135 -11 0 -36 -4 -56 -10 -20 -5 -66 -12 -102 -15 -54 -5 -72 -12
-97 -35 -18 -16 -32 -32 -32 -35 0 -4 -7 -13 -15 -21 -8 -9 -15 -32 -15 -52 0
-20 -9 -50 -20 -67 -21 -32 -26 -70 -10 -80 6 -3 10 -25 10 -48 0 -44 20 -77
57 -96 52 -27 226 -7 305 35 14 8 31 14 38 14 6 0 35 11 63 23 29 13 72 32 97
43 71 30 199 102 228 129 15 14 30 25 34 25 14 0 61 43 214 195 216 216 335
390 405 595 29 86 32 106 33 220 1 106 -3 136 -22 195 -13 38 -37 86 -53 106
-22 28 -28 44 -23 63 4 18 1 27 -15 36 -14 7 -21 7 -21 0 0 -5 7 -10 15 -10 8
0 15 -7 15 -15 0 -8 -4 -15 -10 -15 -5 0 -10 5 -10 10 0 6 -7 10 -16 10 -11 0
-14 5 -10 16 6 17 -30 64 -50 64 -7 0 -25 7 -40 15 -19 10 -56 15 -104 14
l-75 -1 35 -16 35 -16 -70 -7 c-38 -4 -91 -10 -116 -12 -25 -3 -68 -12 -95
-20 -27 -9 -81 -25 -121 -37 -70 -20 -92 -34 -79 -48 4 -3 39 0 79 8 73 15
137 15 137 1 0 -9 -77 -34 -150 -50 -25 -6 -124 -38 -220 -72 -410 -145 -492
-171 -519 -164 l-26 7 30 25 c17 14 50 44 75 67 25 23 56 50 70 59 22 15 22
17 5 17 -11 0 -42 -12 -70 -25 -27 -14 -64 -25 -82 -25 -17 0 -33 -5 -35 -11
-8 -23 -151 -47 -173 -29 -30 25 -9 199 28 236 4 4 7 23 7 43 1 22 18 71 45
126 25 49 45 93 45 98 0 9 43 107 62 141 6 11 14 33 19 49 7 25 5 30 -21 45
-17 9 -30 20 -30 24 0 6 -48 -5 -142 -34 -35 -10 -40 -9 -58 12 -12 14 -20 35
-18 50 3 29 -12 33 -74 21z m1634 -602 c92 -49 138 -129 138 -240 0 -68 -12
-119 -28 -119 -5 0 -14 25 -21 55 -37 163 -145 270 -291 290 -75 10 -95 22
-50 29 93 16 207 9 252 -15z m118 -74 c0 -8 -2 -15 -4 -15 -2 0 -6 7 -10 15
-3 8 -1 15 4 15 6 0 10 -7 10 -15z"/>
<path d="M5657 3607 c-4 -10 -7 -30 -7 -43 0 -14 -4 -23 -8 -20 -5 3 -16 -19
-25 -48 -20 -61 -21 -69 -7 -61 6 3 10 17 10 30 0 13 6 28 13 32 16 10 40 84
35 109 -3 18 -4 18 -11 1z"/>
<path d="M4841 3384 c-14 -49 -7 -56 9 -9 7 20 10 39 7 42 -3 3 -10 -12 -16
-33z"/>
<path d="M4821 3313 c-1 -6 -4 -20 -7 -30 -5 -17 -5 -17 6 0 6 10 9 23 6 30
-3 9 -5 9 -5 0z"/>
<path d="M2210 3290 c0 -5 7 -7 15 -4 8 4 15 8 15 10 0 2 -7 4 -15 4 -8 0 -15
-4 -15 -10z"/>
<path d="M2138 3283 c7 -3 16 -2 19 1 4 3 -2 6 -13 5 -11 0 -14 -3 -6 -6z"/>
<path d="M6004 3071 c-36 -16 -37 -30 -4 -69 57 -66 161 -96 175 -51 6 19 -28
83 -59 108 -18 15 -88 22 -112 12z"/>
<path d="M5244 3055 c-19 -14 -19 -14 4 -30 12 -9 22 -21 22 -26 0 -5 10 -23
21 -39 24 -32 49 -30 49 5 0 13 5 27 10 30 6 3 10 17 10 31 0 14 -4 23 -9 20
-5 -3 -14 1 -21 9 -16 19 -60 19 -86 0z"/>
<path d="M4655 2898 c-58 -20 -60 -22 -19 -26 29 -2 52 3 75 17 l34 21 -30 -1
c-16 -1 -43 -6 -60 -11z"/>
<path d="M5383 2893 c-24 -2 -43 -8 -43 -14 0 -14 54 -11 86 6 16 8 22 14 14
13 -8 -1 -34 -3 -57 -5z"/>
</g>
</svg>
